# Blender v3.1.2 OBJ File: 'tetris_cube_more_beveled.blend'
# www.blender.org
mtllib tetris_cube_more_beveled.mtl
o Cube_Cube.001
v -0.685270 -1.000000 0.685270
v -0.685270 -0.685270 1.000000
v -1.000000 -0.685270 0.685270
v -0.685270 0.685270 1.000000
v -0.685270 1.000000 0.685270
v -1.000000 0.685270 0.685270
v -0.685270 -1.000000 -0.685270
v -1.000000 -0.685270 -0.685270
v -0.685270 -0.685270 -1.000000
v -0.685270 1.000000 -0.685270
v -0.685270 0.685270 -1.000000
v -1.000000 0.685270 -0.685270
v 0.685270 -1.000000 0.685270
v 1.000000 -0.685270 0.685270
v 0.685270 -0.685270 1.000000
v 0.685270 1.000000 0.685270
v 0.685270 0.685270 1.000000
v 1.000000 0.685270 0.685270
v 0.685270 -1.000000 -0.685270
v 0.685270 -0.685270 -1.000000
v 1.000000 -0.685270 -0.685270
v 0.685270 1.000000 -0.685270
v 1.000000 0.685270 -0.685270
v 0.685270 0.685270 -1.000000
vt 0.585659 0.789341
vt 0.414341 0.960659
vt 0.414341 0.789341
vt 0.585659 0.539341
vt 0.414341 0.710659
vt 0.414341 0.539341
vt 0.835659 0.539341
vt 0.664341 0.710659
vt 0.664341 0.539341
vt 0.585659 0.039341
vt 0.414341 0.210659
vt 0.414341 0.039341
vt 0.585659 0.289341
vt 0.414341 0.460659
vt 0.414341 0.289341
vt 0.164341 0.710659
vt 0.164341 0.750000
vt 0.125000 0.710659
vt 0.585659 0.960659
vt 0.625000 0.960659
vt 0.585659 1.000000
vt 0.164341 0.539341
vt 0.125000 0.539341
vt 0.164341 0.500000
vt 0.625000 0.289341
vt 0.625000 0.289341
vt 0.585659 0.250000
vt 0.335659 0.710659
vt 0.375000 0.710659
vt 0.335659 0.750000
vt 0.625000 0.789341
vt 0.625000 0.789341
vt 0.585659 0.750000
vt 0.335659 0.539341
vt 0.335659 0.500000
vt 0.375000 0.539341
vt 0.625000 0.539341
vt 0.625000 0.539341
vt 0.585659 0.500000
vt 0.585659 0.000000
vt 0.414341 0.000000
vt 0.625000 0.210659
vt 0.625000 0.039341
vt 0.585659 0.210659
vt 0.625000 0.460659
vt 0.585659 0.460659
vt 0.585659 0.710659
vt 0.835659 0.710659
vn 0.0000 0.0000 1.0000
vn 1.0000 0.0000 0.0000
vn 0.0000 1.0000 0.0000
vn -1.0000 0.0000 0.0000
vn 0.0000 0.0000 -1.0000
vn -0.5774 -0.5774 0.5774
vn -0.5774 0.5774 0.5774
vn -0.5774 -0.5774 -0.5774
vn -0.5774 0.5774 -0.5774
vn 0.5774 -0.5774 0.5774
vn 0.5774 0.5774 0.5774
vn 0.5774 -0.5774 -0.5774
vn 0.5774 0.5774 -0.5774
vn -0.7071 -0.7071 0.0000
vn -0.7071 0.0000 0.7071
vn -0.7071 0.7071 0.0000
vn -0.7071 0.0000 -0.7071
vn 0.0000 -0.7071 -0.7071
vn 0.0000 0.7071 -0.7071
vn 0.7071 0.0000 -0.7071
vn 0.7071 -0.7071 0.0000
vn 0.7071 0.7071 0.0000
vn 0.7071 0.0000 0.7071
vn 0.0000 -0.7071 0.7071
vn 0.0000 0.7071 0.7071
vn 0.0000 -1.0000 0.0000
usemtl None
s off
f 17/1/1 2/2/1 15/3/1
f 23/4/2 14/5/2 21/6/2
f 10/7/3 16/8/3 22/9/3
f 6/10/4 8/11/4 3/12/4
f 11/13/5 20/14/5 9/15/5
f 1/16/6 2/17/6 3/18/6
f 4/19/7 5/20/7 6/21/7
f 7/22/8 8/23/8 9/24/8
f 10/25/9 11/26/9 12/27/9
f 13/28/10 14/29/10 15/30/10
f 16/31/11 17/32/11 18/33/11
f 19/34/12 20/35/12 21/36/12
f 22/37/13 23/38/13 24/39/13
f 1/16/14 8/23/14 7/22/14
f 4/40/15 3/12/15 2/41/15
f 10/42/16 6/10/16 5/43/16
f 9/15/17 12/44/17 11/13/17
f 7/22/18 20/35/18 19/34/18
f 22/45/19 11/13/19 10/25/19
f 21/6/20 24/46/20 23/4/20
f 19/34/21 14/5/21 13/28/21
f 16/8/22 23/4/22 22/9/22
f 15/3/23 18/47/23 17/1/23
f 13/28/24 2/17/24 1/16/24
f 5/20/25 17/1/25 16/31/25
f 19/34/26 1/16/26 7/22/26
f 17/1/1 4/19/1 2/2/1
f 23/4/2 18/47/2 14/5/2
f 10/7/3 5/48/3 16/8/3
f 6/10/4 12/44/4 8/11/4
f 11/13/5 24/46/5 20/14/5
f 1/16/14 3/18/14 8/23/14
f 4/40/15 6/10/15 3/12/15
f 10/42/16 12/44/16 6/10/16
f 9/15/17 8/11/17 12/44/17
f 7/22/18 9/24/18 20/35/18
f 22/45/19 24/46/19 11/13/19
f 21/6/20 20/14/20 24/46/20
f 19/34/21 21/6/21 14/5/21
f 16/8/22 18/47/22 23/4/22
f 15/3/23 14/5/23 18/47/23
f 13/28/24 15/30/24 2/17/24
f 5/20/25 4/19/25 17/1/25
f 19/34/26 13/28/26 1/16/26
